<svg width="30" height="30" viewBox="0 0 30 30" fill="none" xmlns="http://www.w3.org/2000/svg">
<g clip-path="url(#clip0_46_69)">
<rect x="8" y="8" width="2" height="2" rx="0.3" fill="#D9D9D9"/>
<rect x="10" y="10" width="2" height="2" rx="0.3" fill="#D9D9D9"/>
<rect x="12" y="12" width="2" height="2" rx="0.3" fill="#D9D9D9"/>
<rect x="14" y="14" width="2" height="2" rx="0.3" fill="#D9D9D9"/>
<rect x="12" y="16" width="2" height="2" rx="0.3" fill="#D9D9D9"/>
<rect x="14" y="20" width="2" height="2" rx="0.3" fill="#D9D9D9"/>
<rect x="12" y="22" width="2" height="2" rx="0.3" fill="#D9D9D9"/>
<rect x="16" y="22" width="2" height="2" rx="0.3" fill="#D9D9D9"/>
<rect x="18" y="24" width="2" height="2" rx="0.3" fill="#D9D9D9"/>
<rect x="20" y="26" width="2" height="2" rx="0.3" fill="#D9D9D9"/>
<rect x="22" y="28" width="2" height="2" rx="0.3" fill="#D9D9D9"/>
<rect x="6" y="28" width="2" height="2" rx="0.3" fill="#D9D9D9"/>
<rect x="10" y="24" width="2" height="2" rx="0.3" fill="#D9D9D9"/>
<rect x="8" y="26" width="2" height="2" rx="0.3" fill="#D9D9D9"/>
<rect x="20" y="16" width="2" height="2" rx="0.3" transform="rotate(-90 20 16)" fill="#D9D9D9"/>
<rect x="22" y="18" width="2" height="2" rx="0.3" transform="rotate(-90 22 18)" fill="#D9D9D9"/>
<rect x="22" y="14" width="2" height="2" rx="0.3" transform="rotate(-90 22 14)" fill="#D9D9D9"/>
<rect x="24" y="12" width="2" height="2" rx="0.3" transform="rotate(-90 24 12)" fill="#D9D9D9"/>
<rect x="26" y="10" width="2" height="2" rx="0.3" transform="rotate(-90 26 10)" fill="#D9D9D9"/>
<rect x="28" y="8" width="2" height="2" rx="0.3" transform="rotate(-90 28 8)" fill="#D9D9D9"/>
<rect x="28" y="24" width="2" height="2" rx="0.3" transform="rotate(-90 28 24)" fill="#D9D9D9"/>
<rect x="24" y="20" width="2" height="2" rx="0.3" transform="rotate(-90 24 20)" fill="#D9D9D9"/>
<rect x="26" y="22" width="2" height="2" rx="0.3" transform="rotate(-90 26 22)" fill="#D9D9D9"/>
<rect x="10" y="14" width="2" height="2" rx="0.3" transform="rotate(90 10 14)" fill="#D9D9D9"/>
<rect x="8" y="12" width="2" height="2" rx="0.3" transform="rotate(90 8 12)" fill="#D9D9D9"/>
<rect x="8" y="16" width="2" height="2" rx="0.3" transform="rotate(90 8 16)" fill="#D9D9D9"/>
<rect x="6" y="18" width="2" height="2" rx="0.3" transform="rotate(90 6 18)" fill="#D9D9D9"/>
<rect x="4" y="20" width="2" height="2" rx="0.3" transform="rotate(90 4 20)" fill="#D9D9D9"/>
<rect x="2" y="22" width="2" height="2" rx="0.3" transform="rotate(90 2 22)" fill="#D9D9D9"/>
<rect x="2" y="6" width="2" height="2" rx="0.3" transform="rotate(90 2 6)" fill="#D9D9D9"/>
<rect x="6" y="10" width="2" height="2" rx="0.3" transform="rotate(90 6 10)" fill="#D9D9D9"/>
<rect x="4" y="8" width="2" height="2" rx="0.3" transform="rotate(90 4 8)" fill="#D9D9D9"/>
<rect x="16" y="10" width="2" height="2" rx="0.3" transform="rotate(180 16 10)" fill="#D9D9D9"/>
<rect x="18" y="8" width="2" height="2" rx="0.3" transform="rotate(180 18 8)" fill="#D9D9D9"/>
<rect x="14" y="8" width="2" height="2" rx="0.3" transform="rotate(180 14 8)" fill="#D9D9D9"/>
<rect x="12" y="6" width="2" height="2" rx="0.3" transform="rotate(180 12 6)" fill="#D9D9D9"/>
<rect x="10" y="4" width="2" height="2" rx="0.3" transform="rotate(180 10 4)" fill="#D9D9D9"/>
<rect x="8" y="2" width="2" height="2" rx="0.3" transform="rotate(180 8 2)" fill="#D9D9D9"/>
<rect x="24" y="2" width="2" height="2" rx="0.3" transform="rotate(180 24 2)" fill="#D9D9D9"/>
<rect x="20" y="6" width="2" height="2" rx="0.3" transform="rotate(180 20 6)" fill="#D9D9D9"/>
<rect x="22" y="4" width="2" height="2" rx="0.3" transform="rotate(180 22 4)" fill="#D9D9D9"/>
<rect x="16" y="12" width="2" height="2" rx="0.3" fill="#D9D9D9"/>
<rect x="18" y="10" width="2" height="2" rx="0.3" fill="#D9D9D9"/>
<rect x="20" y="8" width="2" height="2" rx="0.3" fill="#D9D9D9"/>
<rect x="16" y="16" width="2" height="2" rx="0.3" fill="#D9D9D9"/>
<rect x="18" y="18" width="2" height="2" rx="0.3" fill="#D9D9D9"/>
<rect x="20" y="20" width="2" height="2" rx="0.3" fill="#D9D9D9"/>
<rect x="10" y="18" width="2" height="2" rx="0.3" fill="#D9D9D9"/>
<rect x="8" y="20" width="2" height="2" rx="0.3" fill="#D9D9D9"/>
</g>
<defs>
<clipPath id="clip0_46_69">
<rect width="30" height="30" fill="white"/>
</clipPath>
</defs>
</svg>
