<svg width="32" height="26" viewBox="0 0 32 26" fill="none" xmlns="http://www.w3.org/2000/svg">
<path d="M32 7.04167C32 3.15266 28.8958 -1.35687e-07 25.0667 -3.03066e-07L1.06667 -1.35214e-06C0.477545 -1.37789e-06 -2.12011e-08 0.485023 -4.7354e-08 1.08333C-7.35076e-08 1.68166 0.477545 2.16667 1.06667 2.16667L16 2.16667C18.651 2.16667 20.8 4.34926 20.8 7.04167C20.8 9.73408 18.651 11.9167 16 11.9167L1.06667 11.9167C0.477544 11.9167 -5.42094e-07 12.4017 -5.68248e-07 13C-5.94402e-07 13.5983 0.477544 14.0833 1.06667 14.0833L16 14.0833C18.651 14.0833 20.8 16.2659 20.8 18.9583C20.8 21.6507 18.651 23.8333 16 23.8333L1.06666 23.8333C0.477544 23.8333 -1.06299e-06 24.3183 -1.08914e-06 24.9167C-1.1153e-06 25.515 0.477544 26 1.06666 26L25.0667 26C28.8958 26 32 22.8473 32 18.9583C32 16.4496 30.7082 14.2472 28.7634 13C30.7082 11.7528 32 9.5504 32 7.04167Z" fill="#FF5C00"/>
<path d="M16 8.125C16.5891 8.125 17.0667 7.63999 17.0667 7.04167C17.0667 6.44334 16.5891 5.95833 16 5.95833L1.06667 5.95833C0.477545 5.95833 -2.81647e-07 6.44334 -3.07801e-07 7.04167C-3.33955e-07 7.63999 0.477544 8.125 1.06667 8.125L16 8.125Z" fill="#FF5C00"/>
<path d="M16 20.0417C16.5891 20.0417 17.0667 19.5567 17.0667 18.9583C17.0667 18.36 16.5891 17.875 16 17.875L1.06666 17.875C0.477544 17.875 -8.02541e-07 18.36 -8.28695e-07 18.9583C-8.54849e-07 19.5567 0.477544 20.0417 1.06666 20.0417L16 20.0417Z" fill="#FF5C00"/>
</svg>
